<?xml version="1.0" encoding="utf-8"?>
<!-- Generator: Adobe Illustrator 26.0.0, SVG Export Plug-In . SVG Version: 6.00 Build 0)  -->
<svg version="1.1" id="Capa_1" xmlns="http://www.w3.org/2000/svg" xmlns:xlink="http://www.w3.org/1999/xlink" x="0px" y="0px"
	 viewBox="0 0 600 120.4" style="enable-background:new 0 0 600 120.4;" xml:space="preserve">
<style type="text/css">
	.st0{fill:#ED2428;}
	.st1{fill:#0F0F0F;}
</style>
<g id="Capa_2_00000157272832741941764090000018417308280382238875_">
	<g id="layer">
		<path class="st0" d="M43.2,12.4H54V1.7H32.4v10.8H21.6v10.9H10.9V12.5h10.7V1.7H0v72c0,0,0,27.2,48.6,46.7
			c48.5-19.5,48.5-46.7,48.5-46.7V45H86.4v10.8H75.5V45H54v10.8H43.2V45H32.4V34.1h10.9V45H54V34.1h10.7V23.3H43.2V12.4z M75.5,66.5
			h10.9v10.7H75.5V66.5z"/>
		<polygon class="st0" points="75.5,12.4 75.5,12.4 75.5,1.7 64.7,1.7 64.7,23.3 75.5,23.3 75.5,34 97.1,34 97.1,23.3 86.3,23.3 
			86.3,12.4 		"/>
		<path class="st0" d="M97.1,12.4H86.4V1.7h10.7V12.4z M75.5,34H64.7v10.9h10.7L75.5,34L75.5,34z"/>
		<path class="st1" d="M553.7,106.6L553.7,106.6V1.7h18V91H600v15.7L553.7,106.6L553.7,106.6z M158.8,69.5c3.4,0.1,6.8-0.1,10.2-0.5
			l14,47.7h20l-16.7-52.1c6.7-3,13.9-10.5,13.9-29c0-24.7-11.3-34-33.5-34H139v115.1h19.7V69.5H158.8z M158.8,17.9h7
			c10.7,0,14.7,4,14.7,17.8s-4,17.6-14.7,17.6h-7V17.9z M268.1,106.6V90.9h-32.2V60.1h23.2V44.4h-23.2V17.3H266V1.7h-48.1v104.9
			H268.1z M282.2,106.6H309c18.6,0,28.5-10.2,28.5-31.7V33.3c0-21.5-9.9-31.7-28.5-31.7h-26.7L282.2,106.6L282.2,106.6z M300.2,16.5
			h6.3c9.6,0,13,3.6,13,14.7V77c0,11.1-3.4,14.7-13,14.7h-6.3V16.5z M410.6,27.9C408.8,11.7,399.3,0,383.1,0
			c-19.4,0-30.6,10.4-30.6,28.7c0,33,40.2,39,40.2,61.8c0,6.8-4.7,10.5-11.4,10.5c-6.4,0-11-5.7-11.8-17.4l-18.8,2.7
			c0.8,17.3,11.3,31.9,29.7,31.9s31.2-10.5,31.2-29.4c0-31.2-40.2-40.7-40.2-60.3c0-7.1,3.5-11.3,9.9-11.3c4.4,0,9.7,2.9,10.5,12.9
			l0,0L410.6,27.9z M475.9,106.6V90.9h-32.2V60.1h23.2V44.4h-23.2V17.3h30.1V1.7h-48.1v104.9H475.9z M503.7,83.3h19.7l3.3,23.3h17.4
			L524.8,1.7h-22.3l-19.3,104.9h17.4L503.7,83.3z M513.5,22.6h0.2l7.1,45.1h-14.5L513.5,22.6z"/>
	</g>
</g>
</svg>
