<svg xmlns="http://www.w3.org/2000/svg" viewBox="0 0 600 120.4"><defs><style>.cls-1{fill:#ed2428;}.cls-2{fill:#f7f7f7;}</style></defs><g id="Capa_2" data-name="Capa 2"><g id="layer"><path class="cls-1" d="M43.2,12.4H54V1.7H32.4V12.5H21.6V23.4H10.9V12.5H21.6V1.7H0v72s0,27.2,48.6,46.7c48.5-19.5,48.5-46.7,48.5-46.7V45H86.4V55.8H75.5V45H54V55.8H43.2V45H32.4V34.1H43.3V45H54V34.1H64.7V23.3H43.2ZM75.5,66.5H86.4V77.2H75.5Z"/><polygon class="cls-1" points="75.5 12.4 75.5 12.4 75.5 1.7 64.7 1.7 64.7 23.3 75.5 23.3 75.5 34 97.1 34 97.1 23.3 86.3 23.3 86.3 12.4 75.5 12.4"/><path class="cls-1" d="M97.1,12.4H86.4V1.7H97.1ZM75.5,34H64.7V44.9H75.4V34Z"/><path class="cls-2" d="M553.7,106.6h0V1.7h18V91H600v15.7H553.7ZM158.8,69.5A77.2,77.2,0,0,0,169,69l14,47.7h20L186.3,64.6c6.7-3,13.9-10.5,13.9-29,0-24.7-11.3-34-33.5-34H139V116.7h19.7V69.5Zm0-51.6h7c10.7,0,14.7,4,14.7,17.8s-4,17.6-14.7,17.6h-7Zm109.3,88.7V90.9H235.9V60.1h23.2V44.4H235.9V17.3H266V1.7H217.9V106.6h50.2Zm14.1,0H309c18.6,0,28.5-10.2,28.5-31.7V33.3c0-21.5-9.9-31.7-28.5-31.7H282.3v105Zm18-90.1h6.3c9.6,0,13,3.6,13,14.7V77c0,11.1-3.4,14.7-13,14.7h-6.3ZM410.6,27.9C408.8,11.7,399.3,0,383.1,0c-19.4,0-30.6,10.4-30.6,28.7,0,33,40.2,39,40.2,61.8,0,6.8-4.7,10.5-11.4,10.5-6.4,0-11-5.7-11.8-17.4l-18.8,2.7c.8,17.3,11.3,31.9,29.7,31.9s31.2-10.5,31.2-29.4c0-31.2-40.2-40.7-40.2-60.3,0-7.1,3.5-11.3,9.9-11.3,4.4,0,9.7,2.9,10.5,12.9h0Zm65.3,78.7V90.9H443.7V60.1h23.2V44.4H443.7V17.3h30.1V1.7H425.7V106.6h50.2Zm27.8-23.3h19.7l3.3,23.3h17.4L524.8,1.7H502.5L483.2,106.6h17.4Zm9.8-60.7h.2l7.1,45.1H506.3Z"/></g></g></svg>