<?xml version="1.0" encoding="utf-8"?>
<!-- Generator: Adobe Illustrator 26.0.0, SVG Export Plug-In . SVG Version: 6.00 Build 0)  -->
<svg version="1.1" id="Layer_2" xmlns="http://www.w3.org/2000/svg" xmlns:xlink="http://www.w3.org/1999/xlink" x="0px" y="0px"
	 viewBox="0 0 90.3 90.2" style="enable-background:new 0 0 90.3 90.2;" xml:space="preserve">
<style type="text/css">
	.st0{opacity:0.1;fill:#0A2175;enable-background:new    ;}
	.st1{opacity:0.2;fill:#0A2175;enable-background:new    ;}
	.st2{fill:#0A2175;}
	.st3{fill:#FFFFFF;}
</style>
<circle class="st0" cx="45.2" cy="45.5" r="44.1"/>
<circle class="st1" cx="45.2" cy="45.5" r="35.7"/>
<circle class="st2" cx="45.2" cy="45.5" r="27.7"/>
<g>
	<path class="st3" d="M39.7,31.1c0.4,0.5,0.5,1.2,0.2,1.7c-1.2,2.1-1.8,4.5-1.8,6.9c0,8.1,6.6,14.6,14.7,14.6c1.1,0,2.1-0.1,3.1-0.3
		c0.6-0.1,1.3,0.1,1.6,0.6c0.4,0.5,0.4,1.3-0.1,1.8c-3.2,3.9-8,6.2-13,6.2c-9.2,0-16.7-7.4-16.7-16.6c0-6.9,4.2-12.8,10.3-15.3
		C38.6,30.4,39.3,30.6,39.7,31.1z"/>
	<path class="st3" d="M49.4,36.9c0.1-0.2,0.3-0.4,0.5-0.3c0.1,0,0.2,0.1,0.3,0.3l0.8,2.3c0.3,1,1.2,1.9,2.2,2.2l2.3,0.8
		c0.2,0.1,0.4,0.3,0.3,0.5c0,0.1-0.1,0.2-0.3,0.3l-2.3,0.8c-1,0.3-1.9,1.2-2.2,2.2l-0.8,2.3c-0.1,0.2-0.3,0.4-0.5,0.3
		c-0.1,0-0.2-0.1-0.3-0.3L48.6,46c-0.3-1-1.2-1.9-2.2-2.2L44.1,43c-0.2-0.1-0.4-0.3-0.3-0.5c0-0.1,0.1-0.2,0.3-0.3l2.3-0.8
		c1-0.3,1.9-1.2,2.2-2.2C48.6,39.2,49.4,36.9,49.4,36.9z M55.5,30.7c0.1-0.2,0.2-0.2,0.4-0.2c0.1,0,0.2,0.1,0.2,0.2l0.5,1.6
		c0.2,0.7,0.8,1.2,1.5,1.5l1.6,0.5c0.2,0.1,0.2,0.2,0.2,0.4c0,0.1-0.1,0.2-0.2,0.2L58,35.3c-0.7,0.2-1.2,0.8-1.5,1.5l-0.5,1.6
		c-0.1,0.2-0.2,0.2-0.4,0.2c-0.1,0-0.2-0.1-0.2-0.2L55,36.8c-0.2-0.7-0.8-1.2-1.5-1.5L52,34.8c-0.2-0.1-0.2-0.2-0.2-0.4
		c0-0.1,0.1-0.2,0.2-0.2l1.6-0.5c0.7-0.2,1.2-0.8,1.5-1.5L55.5,30.7L55.5,30.7z"/>
</g>
</svg>
