<?xml version="1.0" encoding="utf-8"?>
<!-- Generator: Adobe Illustrator 26.0.0, SVG Export Plug-In . SVG Version: 6.00 Build 0)  -->
<svg version="1.1" id="Layer_2" xmlns="http://www.w3.org/2000/svg" xmlns:xlink="http://www.w3.org/1999/xlink" x="0px" y="0px"
	 viewBox="0 0 90.3 90.2" style="enable-background:new 0 0 90.3 90.2;" xml:space="preserve">
<style type="text/css">
	.st0{opacity:0.1;fill:#F7C800;enable-background:new    ;}
	.st1{opacity:0.2;fill:#F7C800;enable-background:new    ;}
	.st2{fill:#F7C800;}
	.st3{fill:#FFFFFF;}
</style>
<circle class="st0" cx="45.2" cy="45.5" r="44.1"/>
<circle class="st1" cx="45.2" cy="45.5" r="35.7"/>
<circle class="st2" cx="45.2" cy="45.5" r="27.7"/>
<path class="st3" d="M45.2,54.3c5.1,0,9.3-4.1,9.3-9.3s-4.1-9.3-9.3-9.3s-9.3,4.1-9.3,9.3S40.1,54.3,45.2,54.3z M45.2,26.6
	c0.6,0,1.2,0.5,1.2,1.2v4.6c0,0.6-0.5,1.2-1.2,1.2S44,33,44,32.4v-4.6C44,27.1,44.5,26.6,45.2,26.6z M45.2,56.7
	c0.6,0,1.2,0.5,1.2,1.2v4.6c0,0.6-0.5,1.2-1.2,1.2S44,63.1,44,62.4v-4.6C44,57.2,44.5,56.7,45.2,56.7z M63.7,45.1
	c0,0.6-0.5,1.2-1.2,1.2h-4.6c-0.6,0-1.2-0.5-1.2-1.2s0.5-1.2,1.2-1.2h4.6C63.2,43.9,63.7,44.5,63.7,45.1z M33.6,45.1
	c0,0.6-0.5,1.2-1.2,1.2h-4.6c-0.6,0-1.2-0.5-1.2-1.2s0.5-1.2,1.2-1.2h4.6C33.1,43.9,33.6,44.5,33.6,45.1z M58.3,32
	c0.5,0.5,0.5,1.2,0,1.6L55,36.9c-0.5,0.5-1.2,0.5-1.6,0s-0.5-1.2,0-1.6l3.3-3.3C57.1,31.6,57.8,31.6,58.3,32z M37,53.3
	c0.5,0.5,0.5,1.2,0,1.6l-3.3,3.3c-0.5,0.4-1.2,0.4-1.6,0c-0.4-0.4-0.4-1.2,0-1.6l3.3-3.3C35.8,52.8,36.5,52.8,37,53.3z M58.3,58.2
	c-0.5,0.5-1.2,0.5-1.6,0l-3.3-3.3c-0.4-0.5-0.4-1.2,0-1.6c0.4-0.4,1.2-0.4,1.6,0l3.3,3.3C58.7,57,58.7,57.7,58.3,58.2z M37,36.9
	c-0.5,0.5-1.2,0.5-1.6,0l-3.3-3.3c-0.5-0.4-0.5-1.2,0-1.6c0.4-0.5,1.2-0.5,1.6,0c0,0,0,0,0,0l3.3,3.3C37.4,35.7,37.4,36.5,37,36.9
	C37,36.9,37,36.9,37,36.9z"/>
</svg>
